<mxfile host="Electron" agent="Mozilla/5.0 (Windows NT 10.0; Win64; x64) AppleWebKit/537.36 (KHTML, like Gecko) draw.io/25.0.2 Chrome/128.0.6613.186 Electron/32.2.5 Safari/537.36" version="25.0.2">
  <diagram name="Page-1" id="q3uFHKvuZou4gTG6mtTF">
    <mxGraphModel dx="1480" dy="866" grid="1" gridSize="10" guides="1" tooltips="1" connect="1" arrows="1" fold="1" page="1" pageScale="1" pageWidth="850" pageHeight="1100" math="0" shadow="0">
      <root>
        <mxCell id="0" />
        <mxCell id="1" parent="0" />
        <mxCell id="T_z0Qs4jjKbPo24oxukL-5" value="" style="edgeStyle=orthogonalEdgeStyle;rounded=0;orthogonalLoop=1;jettySize=auto;html=1;fontSize=20;" edge="1" parent="1" source="T_z0Qs4jjKbPo24oxukL-1" target="T_z0Qs4jjKbPo24oxukL-2">
          <mxGeometry relative="1" as="geometry" />
        </mxCell>
        <mxCell id="T_z0Qs4jjKbPo24oxukL-1" value="&lt;span style=&quot;color: rgb(255, 255, 255);&quot;&gt;Start&lt;/span&gt;" style="strokeWidth=2;html=1;shape=mxgraph.flowchart.start_1;whiteSpace=wrap;fontSize=20;" vertex="1" parent="1">
          <mxGeometry x="387.5" y="40" width="110" height="70" as="geometry" />
        </mxCell>
        <mxCell id="T_z0Qs4jjKbPo24oxukL-6" value="" style="edgeStyle=orthogonalEdgeStyle;rounded=0;orthogonalLoop=1;jettySize=auto;html=1;fontSize=20;" edge="1" parent="1" source="T_z0Qs4jjKbPo24oxukL-2" target="T_z0Qs4jjKbPo24oxukL-3">
          <mxGeometry relative="1" as="geometry" />
        </mxCell>
        <mxCell id="T_z0Qs4jjKbPo24oxukL-2" value="&lt;span style=&quot;color: rgb(255, 255, 255);&quot;&gt;Nháº­p a ,b&lt;/span&gt;" style="shape=parallelogram;html=1;strokeWidth=2;perimeter=parallelogramPerimeter;whiteSpace=wrap;rounded=1;arcSize=12;size=0.23;fontSize=20;" vertex="1" parent="1">
          <mxGeometry x="370" y="160" width="145" height="60" as="geometry" />
        </mxCell>
        <mxCell id="T_z0Qs4jjKbPo24oxukL-7" value="" style="edgeStyle=orthogonalEdgeStyle;rounded=0;orthogonalLoop=1;jettySize=auto;html=1;fontSize=20;" edge="1" parent="1" source="T_z0Qs4jjKbPo24oxukL-3" target="T_z0Qs4jjKbPo24oxukL-4">
          <mxGeometry relative="1" as="geometry" />
        </mxCell>
        <mxCell id="T_z0Qs4jjKbPo24oxukL-3" value="&lt;span style=&quot;color: rgb(255, 255, 255);&quot;&gt;In ra x = (-b)/a&lt;/span&gt;" style="rounded=1;whiteSpace=wrap;html=1;absoluteArcSize=1;arcSize=14;strokeWidth=2;fontSize=20;" vertex="1" parent="1">
          <mxGeometry x="361.25" y="280" width="162.5" height="90" as="geometry" />
        </mxCell>
        <mxCell id="T_z0Qs4jjKbPo24oxukL-4" value="&lt;span style=&quot;color: rgb(255, 255, 255);&quot;&gt;End&lt;/span&gt;" style="strokeWidth=2;html=1;shape=mxgraph.flowchart.start_1;whiteSpace=wrap;fontSize=20;" vertex="1" parent="1">
          <mxGeometry x="387.5" y="430" width="110" height="70" as="geometry" />
        </mxCell>
      </root>
    </mxGraphModel>
  </diagram>
</mxfile>
